<?xml version="1.0" encoding="UTF-8"?>
<svg xmlns="http://www.w3.org/2000/svg" xmlns:xlink="http://www.w3.org/1999/xlink" version="1.1" id="Capa_1" x="0px" y="0px" viewBox="0 0 512 512" style="enable-background:new 0 0 512 512;" xml:space="preserve" width="512" height="512">
<g id="Coding">
	<path style="fill:none;stroke:#0023C4;stroke-width:40;stroke-linecap:round;stroke-linejoin:round;stroke-miterlimit:10;" d="&#10;&#9;&#9;M180,56h-40c-44.183,0-80,35.817-80,80v80c0,22.091-17.909,40-40,40c22.091,0,40,17.909,40,40v80c0,44.183,35.817,80,80,80h40"/>
	<path style="fill:none;stroke:#0023C4;stroke-width:40;stroke-linecap:round;stroke-linejoin:round;stroke-miterlimit:10;" d="&#10;&#9;&#9;M336,56h36c44.183,0,80,35.817,80,80v80c0,22.091,17.909,40,40,40c-22.091,0-40,17.909-40,40v80c0,44.183-35.817,80-80,80h-36"/>
	
		<line style="fill:none;stroke:#FF5CF4;stroke-width:40;stroke-linecap:round;stroke-linejoin:round;stroke-miterlimit:10;" x1="140" y1="136" x2="180" y2="136"/>
	
		<line style="fill:none;stroke:#0023C4;stroke-width:40;stroke-linecap:round;stroke-linejoin:round;stroke-miterlimit:10;" x1="260" y1="136" x2="372" y2="136"/>
	
		<line style="fill:none;stroke:#FF5CF4;stroke-width:40;stroke-linecap:round;stroke-linejoin:round;stroke-miterlimit:10;" x1="372" y1="376" x2="332" y2="376"/>
	
		<line style="fill:none;stroke:#0023C4;stroke-width:40;stroke-linecap:round;stroke-linejoin:round;stroke-miterlimit:10;" x1="252" y1="376" x2="140" y2="376"/>
	
		<line style="fill:none;stroke:#FF5CF4;stroke-width:40;stroke-linecap:round;stroke-linejoin:round;stroke-miterlimit:10;" x1="372" y1="216" x2="332" y2="216"/>
	
		<line style="fill:none;stroke:#0023C4;stroke-width:40;stroke-linecap:round;stroke-linejoin:round;stroke-miterlimit:10;" x1="252" y1="216" x2="140" y2="216"/>
	
		<line style="fill:none;stroke:#FF5CF4;stroke-width:40;stroke-linecap:round;stroke-linejoin:round;stroke-miterlimit:10;" x1="140" y1="296" x2="180" y2="296"/>
	
		<line style="fill:none;stroke:#0023C4;stroke-width:40;stroke-linecap:round;stroke-linejoin:round;stroke-miterlimit:10;" x1="260" y1="296" x2="372" y2="296"/>
</g>















</svg>
