<svg id="Layer_1" enable-background="new 0 0 512 512" height="512" viewBox="0 0 512 512" width="512" xmlns="http://www.w3.org/2000/svg"><g clip-rule="evenodd" fill-rule="evenodd"><path d="m143.079 207.991c0-4.948-4.051-9.004-8.999-9.004h-30.586c-4.973 0-8.999 4.033-8.999 9.004v30.572c0 4.969 4.029 8.999 8.999 8.999h30.586c4.945 0 8.999-4.053 8.999-8.999zm-8.999 60.449h-30.586c-4.97 0-8.999 4.03-8.999 8.999v30.572c0 4.971 4.026 9.004 8.999 9.004h30.586c4.948 0 8.999-4.056 8.999-9.004v-30.572c0-4.946-4.054-8.999-8.999-8.999zm357.89 202.822v20.846h-471.987v-20.846zm-247.44-142.553v-32.577h32.539v32.577zm161.964-32.577h32.539v32.577h-32.539zm-48.443 87.565v32.572h-32.539v-32.572zm-158.105-131.658v86.904h-128.391v-152.082l198.926-34.933v91.239h-62.336c-5.102 0-8.199 3.953-8.199 8.872zm133.424-172.822v-19.114h37.056v19.114zm85.17-32.002h37.103v195.952h-37.103zm-60.489 248.917v32.577h-32.539v-32.577zm80.982 87.565v32.572h-32.539v-32.572zm-161.964 32.572h-32.539v-32.572h32.539zm-111.05 46.989h-43.22v-79.561h43.22zm-51.243 0h-43.22v-79.561h43.22z" fill="#a4d4ff"/><path d="m132.057 306.012h-26.539v-26.572h26.539zm325.34-296.768h-40.609c-5.236.875-9.223 5.858-9.223 11.863v219.061h-26.116v-179.065c0-6.616-4.894-11.999-10.87-11.999h-37.362c-5.976 0-10.87 5.383-10.87 11.999v179.064h-40.844v-87.122l19.387-3.407c5.741-1.012 9.929-5.981 9.929-11.82v-18.253c0-3.562-1.6-6.917-4.282-9.199-2.729-2.282-6.305-3.237-9.835-2.621l-255.51 44.881c-5.741 1.007-9.929 5.981-9.929 11.816v18.257c0 3.562 1.553 6.912 4.282 9.195 2.165 1.83 4.894 2.804 7.67 2.804.706 0 1.412-.056 2.118-.183l15.246-2.673v144.102h-26.915c-3.906 0-7.011 3.134-7.011 6.997v117.318h-5.647c-6.635 0-11.999 5.388-11.999 12.004v18.845c0 6.616 5.364 11.999 11.999 11.999h469.987c6.635 0 11.999-5.383 11.999-11.999v-18.845c0-6.616-5.364-12.004-11.999-12.004h-4.329v-208.22c0-7.101-6.635-11.872-12.799-11.872h-7.246v-219.061c0-6.005-3.987-10.988-9.222-11.862zm-323.317 256.196h-30.586c-6.635 0-11.999 5.383-11.999 11.999v30.572c0 6.621 5.364 12.004 11.999 12.004h30.586c6.588 0 11.999-5.383 11.999-12.004v-30.572c0-6.615-5.411-11.999-11.999-11.999zm-2.023-28.877h-26.539v-26.573h26.539zm2.023-40.576c6.588 0 11.999 5.383 11.999 12.004v30.572c0 6.616-5.411 11.999-11.999 11.999h-30.586c-6.635 0-11.999-5.383-11.999-11.999v-30.572c0-6.621 5.364-12.004 11.999-12.004zm194.432 103.145h26.539v26.577h-26.539zm-2.023 40.576c-6.588 0-11.999-5.383-11.999-11.999v-30.576c0-6.616 5.411-11.999 11.999-11.999h30.586c6.635 0 11.999 5.383 11.999 11.999v30.576c0 6.616-5.364 11.999-11.999 11.999zm83.005-40.576h26.539v26.577h-26.539zm-2.023 40.576c-6.588 0-11.999-5.383-11.999-11.999v-30.576c0-6.616 5.411-11.999 11.999-11.999h30.586c6.588 0 11.999 5.383 11.999 11.999v30.576c0 6.616-5.411 11.999-11.999 11.999zm-159.941-40.576h26.539v26.577h-26.539zm-2.023 40.576c-6.588 0-11.999-5.383-11.999-11.999v-30.576c0-6.616 5.411-11.999 11.999-11.999h30.586c6.635 0 11.999 5.383 11.999 11.999v30.576c0 6.616-5.364 11.999-11.999 11.999zm83.005 46.989h26.539v26.572h-26.539zm-2.023 40.571c-6.588 0-11.999-5.383-11.999-11.999v-30.572c0-6.616 5.411-11.999 11.999-11.999h30.586c6.635 0 11.999 5.383 11.999 11.999v30.572c0 6.616-5.364 11.999-11.999 11.999zm-78.959-40.571h26.539v26.572h-26.539zm-2.023 40.571c-6.588 0-11.999-5.383-11.999-11.999v-30.572c0-6.616 5.411-11.999 11.999-11.999h30.586c6.635 0 11.999 5.383 11.999 11.999v30.572c0 6.616-5.364 11.999-11.999 11.999zm163.987-40.571h26.539v26.572h-26.539zm-2.023 40.571c-6.588 0-11.999-5.383-11.999-11.999v-30.572c0-6.616 5.411-11.999 11.999-11.999h30.586c6.588 0 11.999 5.383 11.999 11.999v30.572c0 6.616-5.411 11.999-11.999 11.999zm81.499 61.84h-465.987v-14.846h465.987zm-363.172-102.411h37.221v73.562h-37.221zm-51.243 73.562v-73.562h37.221v73.562zm-33.926-110.317h156.317v110.316h-19.951v-75.561c0-6.616-5.364-11.999-11.999-11.999h-92.417c-6.635 0-11.999 5.383-11.999 11.999v75.561h-19.951zm33.926-160.562v146.563h122.39v-83.904c0-6.879 4.706-11.872 11.199-11.872h59.336v-84.666zm-29.315-9.067v-14.192l251.557-44.175v14.197zm291.13-90.097h31.057v149.951h-31.057zm31.057-27.113v13.114h-31.057v-13.114zm54.113-12.888h31.103v189.952h-31.103zm31.104-27.109v13.109h-31.104v-13.109zm19.998 437.153h-261.721v-206.088h261.721z" fill="#1f4571"/></g></svg>