<svg width="22" height="22" viewBox="0 0 22 22" fill="none" xmlns="http://www.w3.org/2000/svg">
<path d="M0.21875 10.7965C0.21875 10.474 0.21875 10.1506 0.21875 9.82809C0.231875 9.7606 0.251562 9.69403 0.257187 9.62653C0.33125 8.72372 0.549687 7.85653 0.914375 7.02966C1.94094 4.70091 3.67344 3.06497 5.95156 1.99997C8.36375 0.872156 10.8922 0.614344 13.4891 1.16841C16.0559 1.71591 18.2234 2.95903 19.8744 5.02809C21.0359 6.48403 21.6987 8.14622 21.7728 10.0137C21.8666 12.3725 21.0687 14.4275 19.4975 16.1656C17.3291 18.5647 14.5625 19.6972 11.3694 19.8434C9.905 19.91 8.47531 19.6897 7.08312 19.2228C7.01 19.1984 6.89187 19.2247 6.82812 19.2715C6.54031 19.4834 6.27687 19.73 5.98156 19.9287C4.82281 20.7106 3.53562 21.0959 2.13969 21.1137C1.80875 21.1184 1.57344 20.9225 1.49937 20.6122C1.43 20.3197 1.59219 20.12 1.7675 19.9203C2.61594 18.9603 2.94219 17.8522 2.70406 16.5884C2.68344 16.4787 2.62906 16.3606 2.55594 16.2772C1.31281 14.8756 0.523437 13.265 0.29 11.3956C0.266563 11.1959 0.243125 10.9962 0.21875 10.7965ZM7.88375 10.3831C7.89219 9.35559 7.04 8.49403 6.00312 8.48091C4.9775 8.46778 4.11406 9.31622 4.09531 10.3559C4.07656 11.3862 4.94562 12.2656 5.98625 12.2693C7.01562 12.2722 7.87531 11.4181 7.88375 10.3831ZM9.15031 10.3606C9.13625 11.3853 9.98468 12.2497 11.0244 12.2693C12.0472 12.289 12.9125 11.4434 12.9378 10.4C12.9622 9.37247 12.0959 8.49028 11.0534 8.48091C10.0269 8.47153 9.16437 9.32278 9.15031 10.3606ZM16.1019 12.2684C17.1331 12.2665 17.9909 11.4097 17.9937 10.3775C17.9966 9.34809 17.1425 8.48841 16.1084 8.48091C15.0734 8.47247 14.1987 9.34716 14.2062 10.3822C14.2128 11.4162 15.0716 12.2712 16.1019 12.2684Z" fill="#4D4D4D"/>
</svg>
