<svg width="44" height="44" viewBox="0 0 44 44" fill="none" xmlns="http://www.w3.org/2000/svg">
<ellipse cx="21.5" cy="22" rx="21.5" ry="22" fill="#FFF6CE"/>
<g clip-path="url(#clip0_1563_4404)">
<path d="M21.5147 12.2343C22.9556 12.2343 24.3972 12.2368 25.8381 12.2334C26.7386 12.2309 27.4386 12.5945 27.8609 13.3956C28.2831 14.1968 28.1871 14.9792 27.6765 15.7209C26.2833 17.7445 24.8959 19.7724 23.4984 21.7926C23.388 21.9523 23.3922 22.0543 23.501 22.2114C24.9027 24.2393 26.2994 26.2715 27.6927 28.3053C28.3026 29.1956 28.2542 30.2533 27.5754 31.0281C27.1625 31.4988 26.635 31.7596 26.0122 31.7613C23.0031 31.7706 19.9932 31.7766 16.984 31.7579C16.1574 31.7528 15.5237 31.339 15.1388 30.6042C14.7387 29.8413 14.7905 29.0775 15.2713 28.3656C16.1107 27.1227 16.9671 25.8917 17.8166 24.6556C18.3824 23.8315 18.9448 23.0049 19.5191 22.186C19.6202 22.0415 19.6126 21.9498 19.5157 21.8096C18.1055 19.7673 16.6977 17.7224 15.2968 15.6724C14.5246 14.5425 14.8695 13.0753 16.0691 12.4858C16.3834 12.3311 16.7649 12.2504 17.1174 12.2445C18.5812 12.219 20.0475 12.2343 21.5147 12.2343Z" fill="#FFD000"/>
</g>
<defs>
<clipPath id="clip0_1563_4404">
<rect width="21.7486" height="21.7486" fill="white" transform="translate(10.625 11.1257)"/>
</clipPath>
</defs>
</svg>
