<svg enable-background="new 0 0 512 512" height="512" viewBox="0 0 512 512" width="512" xmlns="http://www.w3.org/2000/svg"><g id="Shadow"><path d="m168.67 407.77h-18.89v100.23h-88.17v-100.23h-18.9l62.98-59.2z" fill="#ee3329"/><path d="m330.81 327.04h-18.89v180.96h-88.17v-180.96h-18.89l62.97-59.2z" fill="#f0c635"/><path d="m492.95 265.37h-18.89v242.63h-88.17v-242.63h-18.89l62.98-59.19z" fill="#0093ec"/><path d="m492.95 4-1.67 79.69-26.25-18.36c-98.43 134.56-245.12 202.41-445.98 202.29v-27.78c184.86-.98 330.92-59.44 426.95-193.71l-27.36-18.84z" fill="#40c8a0"/></g><g id="Base"><path d="m38.339 249.733c193.074-3.136 332.185-67.893 425.083-197.786 1.562-2.183 2.18-4.9 1.717-7.543s-1.969-4.988-4.179-6.51l-10.456-7.2 41.445-12.989-.986 47.064-10.913-7.633c-1.743-1.22-3.743-1.807-5.724-1.807-3.084 0-6.123 1.423-8.079 4.097-48.096 65.75-108.813 115.667-180.465 148.365-70.111 31.995-153.323 48.727-247.444 49.776v-7.834z" fill="#6fd7a3"/><path d="m114.356 357.127-39.132 36.784c3.018 1.722 5.052 4.97 5.052 8.692v3.005l25.414-2.942v90.167h42.756v-90.23c0-3.72 2.032-6.966 5.046-8.688z" fill="#fd4755"/><path d="m276.497 276.398-39.128 36.786c2.211 1.263 3.885 3.35 4.625 5.839l25.841-11.356 3.542 185.167h39.209v-170.96c0-3.72 2.032-6.966 5.046-8.688z" fill="#ffd15b"/><path d="m438.646 214.737-39.134 36.779c2.767 1.582 4.685 4.452 4.983 7.79l25.48-8.306v241.833h42.751v-232.63c0-3.721 2.031-6.966 5.046-8.688z" fill="#01d0fb"/></g><g id="Outline"><g fill="#000863"><path d="m61.61 512h88.17c2.209 0 4-1.791 4-4v-96.23h14.89c1.641 0 3.114-1.001 3.719-2.526.604-1.525.216-3.265-.979-4.388l-62.98-59.2c-1.54-1.447-3.939-1.447-5.479 0l-62.98 59.2c-1.195 1.124-1.583 2.863-.979 4.388s2.078 2.526 3.719 2.526h14.9v96.23c-.001 2.209 1.79 4 3.999 4zm-8.804-108.23 52.884-49.71 52.884 49.71h-8.794c-2.209 0-4 1.791-4 4v96.23h-80.17v-96.23c0-2.209-1.791-4-4-4z"/><path d="m223.75 512h88.17c2.209 0 4-1.791 4-4v-176.96h14.89c1.64 0 3.114-1.001 3.719-2.526.604-1.525.216-3.265-.979-4.388l-62.98-59.2c-1.54-1.447-3.94-1.448-5.479 0l-62.97 59.2c-1.195 1.124-1.583 2.863-.979 4.388s2.079 2.526 3.719 2.526h14.89v176.96c-.001 2.209 1.79 4 3.999 4zm-8.795-188.96 52.875-49.71 52.884 49.71h-8.794c-2.209 0-4 1.791-4 4v176.96h-80.17v-176.96c0-2.209-1.791-4-4-4z"/><path d="m385.89 512h88.17c2.209 0 4-1.791 4-4v-238.63h14.89c1.641 0 3.115-1.001 3.719-2.527.604-1.525.216-3.264-.979-4.388l-62.97-59.19c-1.54-1.447-3.94-1.447-5.479 0l-62.98 59.19c-1.195 1.123-1.584 2.863-.979 4.388.604 1.525 2.078 2.527 3.719 2.527h14.89v238.63c-.001 2.209 1.79 4 3.999 4zm-8.793-250.63 52.883-49.701 52.875 49.701h-8.794c-2.209 0-4 1.791-4 4v238.63h-80.17v-238.63c0-2.209-1.791-4-4-4z"/><path d="m19.047 271.62h.535c100.039 0 188.432-17.19 262.724-51.092 72.71-33.181 134.471-83.528 183.628-149.684l23.053 16.124c1.209.846 2.787.957 4.103.289s2.158-2.007 2.188-3.483l1.67-79.69c.027-1.288-.567-2.509-1.597-3.283-1.03-.773-2.369-1.005-3.598-.618l-74.311 23.29c-1.46.458-2.531 1.708-2.759 3.221-.229 1.513.426 3.023 1.687 3.891l23.993 16.521c-91.697 125.977-229.566 187.717-421.334 188.734-2.201.012-3.979 1.799-3.979 4v27.78c0 2.208 1.789 3.999 3.997 4zm4.003-27.81c93.128-.921 175.339-16.789 244.398-47.18 73.431-32.315 134.599-82.168 181.806-148.173.625-.873.872-1.96.687-3.018s-.788-1.996-1.671-2.604l-20.6-14.183 61.165-19.17-1.397 66.639-20.115-14.069c-1.782-1.246-4.236-.84-5.521.916-98.193 134.236-241.725 199.889-438.752 200.646z"/></g></g></svg>