<svg width="44" height="44" viewBox="0 0 44 44" fill="none" xmlns="http://www.w3.org/2000/svg">
<circle cx="22" cy="22" r="22" fill="#D0FFD2"/>
<g clip-path="url(#clip0_1544_1967)">
<path d="M31.882 28.3998C31.8159 28.5451 31.7677 28.7015 31.6801 28.8321C31.4498 29.1767 31.112 29.3503 30.7004 29.3554C29.9931 29.364 29.285 29.3563 28.5777 29.3632C28.411 29.3649 28.3629 29.3108 28.3646 29.1406C28.3741 28.1755 28.3809 27.2104 28.368 26.2462C28.3466 24.6486 27.9048 23.2066 26.7473 22.0439C26.7344 22.031 26.7275 22.0129 26.7129 21.988C27.0936 21.6537 27.5387 21.4501 28.0346 21.426C28.6104 21.3985 29.1982 21.3736 29.7637 21.4595C30.8473 21.6245 31.6466 22.4779 31.8451 23.565C31.8502 23.5951 31.8691 23.6226 31.8812 23.6509C31.882 25.2347 31.882 26.8168 31.882 28.3998Z" fill="#27A72D"/>
<path d="M21.7786 30.5937C20.5823 30.5937 19.3861 30.5971 18.1898 30.592C17.547 30.5894 17.0408 30.2267 16.8535 29.6492C16.82 29.547 16.7933 29.437 16.7916 29.3295C16.7753 28.4418 16.7521 27.5549 16.7564 26.6672C16.7607 25.8362 16.8251 25.0043 17.1577 24.2309C17.8022 22.733 18.9615 21.8478 20.5351 21.4946C21.3076 21.321 22.0922 21.3734 22.8777 21.4027C23.7955 21.437 24.599 21.7473 25.3089 22.3024C26.5421 23.2649 27.2038 24.5256 27.209 26.106C27.2124 27.1089 27.215 28.1127 27.2081 29.1155C27.2021 30.0634 26.7604 30.5275 25.8073 30.555C24.465 30.5937 23.1209 30.6074 21.7777 30.6315C21.7794 30.6203 21.7794 30.6074 21.7786 30.5937Z" fill="#27A72D"/>
<path d="M22.0002 13.3667C23.859 13.3658 25.3586 14.8672 25.3586 16.7269C25.3586 18.5831 23.853 20.0922 22.001 20.0922C20.1499 20.0922 18.6426 18.5822 18.6426 16.7269C18.6434 14.8654 20.1405 13.3676 22.0002 13.3667Z" fill="#27A72D"/>
<path d="M17.2796 21.9768C17.0415 22.2828 16.7992 22.5655 16.5886 22.8706C16.0129 23.7059 15.719 24.6504 15.6751 25.6524C15.6236 26.8203 15.6365 27.9908 15.6347 29.1604C15.6347 29.3348 15.5729 29.364 15.4259 29.3632C14.7058 29.3589 13.9856 29.3675 13.2654 29.3572C12.5951 29.3468 12.1182 28.8527 12.1182 28.1875C12.1173 26.7859 12.1165 25.3843 12.1182 23.9826C12.1199 22.6386 13.1752 21.5042 14.5219 21.4122C15.1174 21.371 15.7155 21.3529 16.3059 21.487C16.6711 21.5686 16.9891 21.7405 17.2796 21.9768Z" fill="#27A72D"/>
<path d="M13.084 17.9567C13.0848 16.7846 14.0362 15.8367 15.2084 15.8384C16.3917 15.8401 17.3327 16.7906 17.3293 17.9791C17.325 19.1453 16.3599 20.1017 15.1955 20.0923C14.0259 20.0828 13.0831 19.1298 13.084 17.9567Z" fill="#27A72D"/>
<path d="M28.7851 15.8382C29.9462 15.8288 30.9095 16.7732 30.9164 17.9291C30.9241 19.1193 29.9943 20.0766 28.8135 20.0921C27.6619 20.1076 26.6814 19.1528 26.6719 18.0055C26.6625 16.8007 27.5915 15.8477 28.7851 15.8382Z" fill="#27A72D"/>
</g>
<defs>
<clipPath id="clip0_1544_1967">
<rect width="22" height="22" fill="white" transform="translate(11 11)"/>
</clipPath>
</defs>
</svg>
