<svg width="44" height="44" viewBox="0 0 44 44" fill="none" xmlns="http://www.w3.org/2000/svg">
<circle cx="22" cy="22" r="22" fill="#E3F2FF"/>
<g clip-path="url(#clip0_1544_2003)">
<path d="M31.884 28.3998C31.8178 28.5451 31.7697 28.7015 31.682 28.8321C31.4517 29.1767 31.114 29.3503 30.7023 29.3554C29.9951 29.364 29.287 29.3563 28.5797 29.3632C28.413 29.3649 28.3648 29.3108 28.3666 29.1406C28.376 28.1755 28.3829 27.2104 28.37 26.2462C28.3485 24.6486 27.9068 23.2066 26.7492 22.0439C26.7363 22.031 26.7295 22.0129 26.7148 21.988C27.0955 21.6537 27.5407 21.4501 28.0366 21.426C28.6123 21.3985 29.2002 21.3736 29.7656 21.4595C30.8493 21.6245 31.6485 22.4779 31.847 23.565C31.8522 23.5951 31.8711 23.6226 31.8831 23.6509C31.884 25.2347 31.884 26.8168 31.884 28.3998Z" fill="#164CA1"/>
<path d="M21.7805 30.5937C20.5843 30.5937 19.388 30.5971 18.1918 30.592C17.549 30.5894 17.0428 30.2267 16.8554 29.6492C16.8219 29.547 16.7953 29.437 16.7936 29.3295C16.7772 28.4418 16.754 27.5549 16.7583 26.6672C16.7626 25.8362 16.8271 25.0043 17.1597 24.2309C17.8042 22.733 18.9635 21.8478 20.537 21.4946C21.3096 21.321 22.0942 21.3734 22.8797 21.4027C23.7975 21.437 24.601 21.7473 25.3108 22.3024C26.544 23.2649 27.2058 24.5256 27.2109 26.106C27.2143 27.1089 27.2169 28.1127 27.2101 29.1155C27.204 30.0634 26.7623 30.5275 25.8093 30.555C24.4669 30.5937 23.1229 30.6074 21.7797 30.6315C21.7814 30.6203 21.7814 30.6074 21.7805 30.5937Z" fill="#164CA1"/>
<path d="M21.9982 13.3667C23.857 13.3658 25.3566 14.8672 25.3566 16.7269C25.3566 18.5831 23.851 20.0922 21.9991 20.0922C20.148 20.0922 18.6406 18.5822 18.6406 16.7269C18.6415 14.8654 20.1385 13.3676 21.9982 13.3667Z" fill="#164CA1"/>
<path d="M17.2796 21.9768C17.0415 22.2828 16.7992 22.5655 16.5886 22.8706C16.0129 23.7059 15.719 24.6504 15.6751 25.6524C15.6236 26.8203 15.6365 27.9908 15.6347 29.1604C15.6347 29.3348 15.5729 29.364 15.4259 29.3632C14.7058 29.3589 13.9856 29.3675 13.2654 29.3572C12.5951 29.3468 12.1182 28.8527 12.1182 28.1875C12.1173 26.7859 12.1165 25.3843 12.1182 23.9826C12.1199 22.6386 13.1752 21.5042 14.5219 21.4122C15.1174 21.371 15.7155 21.3529 16.3059 21.487C16.6711 21.5686 16.9891 21.7405 17.2796 21.9768Z" fill="#164CA1"/>
<path d="M13.082 17.9567C13.0829 16.7846 14.0342 15.8367 15.2064 15.8384C16.3898 15.8401 17.3308 16.7906 17.3273 17.9791C17.323 19.1453 16.358 20.1017 15.1935 20.0923C14.0239 20.0828 13.0812 19.1298 13.082 17.9567Z" fill="#164CA1"/>
<path d="M28.7851 15.8382C29.9462 15.8288 30.9095 16.7732 30.9164 17.9291C30.9241 19.1193 29.9943 20.0766 28.8135 20.0921C27.6619 20.1076 26.6814 19.1528 26.6719 18.0055C26.6625 16.8007 27.5915 15.8477 28.7851 15.8382Z" fill="#164CA1"/>
</g>
<defs>
<clipPath id="clip0_1544_2003">
<rect width="22" height="22" fill="white" transform="translate(11 11)"/>
</clipPath>
</defs>
</svg>
